<svg width="147" height="35" viewBox="0 0 147 35" fill="none" xmlns="http://www.w3.org/2000/svg">
<path d="M116.189 28.1218C115.561 28.8737 114.554 29.6203 112.919 29.6203C111.033 29.6203 110.026 27.9947 110.026 24.6218C110.026 20.6241 111.156 18.4955 113.297 18.4955C114.554 18.4955 115.31 18.6226 116.189 18.7443V28.1218ZM102.862 24.7489C102.862 31.876 105.504 35 110.66 35C113.803 35 116.067 33.9993 117.201 32.2519L117.58 34.6294H123.237V14.2489C120.973 13.497 118.459 12.9993 113.553 12.9993C106.633 12.8722 102.862 17.1241 102.862 24.7489ZM139.958 12.8722C136.437 12.8722 134.301 13.9947 132.788 15.6203L132.287 13.2428H126.753V34.3646H133.667V19.8722C134.168 19.1203 135.68 18.3737 136.938 18.3737C138.951 18.3737 140.08 19.4962 140.08 21.4977V34.6241H146.995V20.497C147 15.4985 144.736 12.8722 139.958 12.8722ZM93.3052 12.8722C90.5406 12.8722 88.6549 13.497 87.142 14.6195V5.50153H80.0999V34.6241H87.0142V19.8722C87.5149 19.1203 89.0277 18.3737 90.2849 18.3737C92.2984 18.3737 93.4277 19.4962 93.4277 21.4977V34.6241H100.342V20.497C100.475 15.4985 98.2112 12.8722 93.3052 12.8722ZM72.1789 29.1226C68.7857 29.1226 67.0225 26.9993 67.0225 23.7481C67.0225 20.6241 68.7803 18.7496 72.1789 18.7496C73.9367 18.7496 75.4496 19.2474 76.8292 19.9993L77.7082 14.2489C75.8225 13.497 73.8089 12.8722 70.4157 12.8722C63.5014 12.8722 59.7247 16.7481 59.7247 23.997C59.7247 31.2459 63.2511 35 70.1653 35C73.436 35 76.7067 33.9993 77.9639 33.1256L77.0849 27.7511C75.5721 28.4977 74.0646 29.1226 72.1789 29.1226ZM47.1533 29.6256C45.1397 29.6256 44.0105 28.503 44.0105 26.5015V13.3752H37.0962V27.3752C37.0962 32.5008 39.4879 35 44.2661 35C47.7872 35 49.9233 33.8775 51.4361 32.2519L51.9368 34.5023H57.5939V13.2481H50.6744V28.1218C50.6744 28.1218 48.4104 29.6256 47.1533 29.6256Z" fill="#101010"/>
<path d="M35.2105 8.74735H32.0676C31.6894 7.74659 29.9316 6.24811 27.5398 6.24811C26.1548 6.24811 24.7752 6.62405 23.6405 7.37065C23.6405 7.37065 22.0052 8.49319 19.6188 10.4947L12.1985 16.6263C11.5699 17.2511 10.8135 17.5 9.93454 17.5H0.628522C0.37816 17.5 0.500677 17.6271 0.500677 17.8759C1.12925 19.8775 2.89244 21.7519 5.90744 21.7519L3.77137 24.0023C3.64352 24.1293 3.64352 24.3782 3.89921 24.3782H12.1985C18.2338 24.3782 21.8827 21.7519 24.397 18.1301C24.5248 17.8812 24.7752 17.5053 24.8977 17.2564C25.0255 17.2564 25.0255 17.3835 25.0255 17.3835C24.397 18.882 22.8895 21.8843 19.997 23.6316C19.118 24.1293 18.7398 24.3835 17.3549 24.8812C17.227 24.8812 17.227 25.0083 17.227 25.1301L20.6202 34.5023H22.5059L19.3631 25.8767C21.627 25.8767 26.4052 25.379 29.0473 21.2542C31.6894 17.0023 32.5684 10.3782 32.5684 10.3782L35.333 9.12859C35.4608 9.00151 35.4608 8.74735 35.2105 8.74735ZM28.1684 11.8767C27.2894 11.8767 26.533 11.1248 26.533 10.2511C26.533 9.37746 27.2894 8.62557 28.1684 8.62557C28.5466 8.62557 28.7969 8.75265 29.0473 8.87443C28.9195 8.87443 28.9195 8.87443 28.7969 8.87443C28.2962 8.87443 27.918 9.25038 27.918 9.74811C27.918 10.2458 28.2962 10.6218 28.7969 10.6218C29.2977 10.6218 29.6759 10.2458 29.6759 9.74811V9.62103C29.8037 9.86989 29.8037 9.99697 29.8037 10.2458C29.8037 11.1248 29.0473 11.8767 28.1684 11.8767Z" fill="#101010"/>
<path d="M21.7549 27.2481L24.397 34.497H26.2827L23.5181 26.8722C23.1399 26.9992 22.3835 27.1263 21.7549 27.2481Z" fill="#101010"/>
<path d="M11.3196 15.7474L15.5971 12.2474C16.476 9.86989 17.3549 7.37065 18.3617 5.37443C18.8624 6.49697 19.2407 7.62481 19.7467 8.74735C22.1385 6.87292 23.5181 5.74508 25.4038 5.24735C24.1414 2.49924 23.3903 0.873676 23.0121 0H13.706C12.9496 1.62557 9.93463 7.75189 6.41357 16.2504H9.80678C10.4354 16.2504 10.9414 16.1233 11.3196 15.7474Z" fill="#101010"/>
<path d="M0 34.497H8.42709L11.1917 25.7496H3.14285C2.13607 28.376 1.12929 31.2511 0 34.497Z" fill="#101010"/>
<path d="M31.0608 20.3752C29.6758 23.2504 28.2961 24.7489 25.1479 26.2526L28.0404 34.5023H36.2118C34.7043 29.4985 32.8186 24.7489 31.0608 20.3752Z" fill="#101010"/>
</svg>
