<svg width="268" height="63" viewBox="0 0 268 63" fill="none" xmlns="http://www.w3.org/2000/svg">
    <path fill-rule="evenodd" clip-rule="evenodd" d="M17.5425 31.494C17.5425 44.1295 27.9354 54.4047 40.7054 54.4047C53.4754 54.4047 63.8743 44.1265 63.8743 31.494C63.8743 18.8615 53.4784 8.57739 40.7054 8.57739C27.9325 8.57739 17.5425 18.8556 17.5425 31.494ZM18.3408 31.494C18.3408 19.2904 28.375 9.36711 40.7054 9.36711C53.0358 9.36711 63.07 19.2904 63.07 31.494C63.07 43.6977 53.0388 53.618 40.7054 53.618C28.375 53.618 18.3408 43.6947 18.3408 31.494Z" fill="black"/>
    <path fill-rule="evenodd" clip-rule="evenodd" d="M24.757 25.2118C30.6801 21.3726 37.228 19.1336 48.3266 21.0266C48.9395 20.6746 49.2744 20.3463 49.4329 19.6246C46.6612 18.6397 43.6593 18.2906 39.7724 18.3528C36.2772 18.4504 29.9954 19.7311 26.6377 21.698L27.6603 20.435C30.0073 19.0774 36.1247 17.2643 40.7083 17.1726C43.9434 17.1135 45.6237 17.2939 49.4658 18.3173C49.1309 17.6666 48.3296 17.3412 47.1695 16.8236C43.4471 15.1732 36.4955 15.0194 30.8027 17.498C31.5262 17.0336 32.2319 16.5959 33.1527 16.1788C35.0304 15.3329 38.1011 14.5077 41.9461 14.5757C45.0138 14.623 48.6555 15.6849 50.892 17.8736C51.2627 18.3084 51.478 18.7668 51.5707 19.1366C53.3407 20.018 54.3633 20.8461 54.9433 21.8311C55.1765 22.325 55.2812 22.8811 55.1705 23.4933C55.9061 23.9311 56.2559 24.289 56.6177 24.777C56.8838 25.1733 57.0751 25.6259 57.123 26.0429C57.2007 26.5901 57.2605 27.2053 56.6804 27.927C57.2874 28.2198 57.7628 29.045 57.8375 29.4118C58.1156 30.7309 57.2605 32.0146 56.1273 33.0113C54.8267 34.1412 51.9594 35.4781 49.6242 36.0667C44.9839 37.2202 40.8877 37.7142 37.6257 38.3057C39.0788 38.6488 41.0701 39.1161 44.3201 39.1161C51.2388 39.1161 57.3592 35.8774 57.3592 35.8774C57.3592 35.8774 57.2186 36.3033 57.0871 36.676C52.6949 39.3054 45.6895 40.4175 42.7085 40.2815C39.6708 40.1425 37.1234 39.6959 34.6268 38.9387C33.8584 39.1398 33.1049 39.3764 32.3813 39.6959C36.1845 41.4054 39.0519 41.7899 42.3049 42.0206C45.6177 42.2632 51.1013 41.4735 55.7386 39.8171C55.5293 40.0242 55.4187 40.3554 55.2004 40.5506C52.8324 41.7781 47.8153 43.0174 45.2978 43.1209C42.7952 43.2215 39.7306 43.1328 37.0785 42.6329C34.7823 42.1922 32.9195 41.4735 30.9671 40.6305C30.6083 40.8849 30.4319 41.228 30.3691 41.5918C37.9934 45.5344 45.1393 45.6202 53.263 43.1268L52.5185 43.8337C43.5726 47.4156 36.5792 46.0254 31.1674 43.4433C30.991 43.3664 30.7758 43.2806 30.6173 43.1801C31.1136 44.0437 35.2517 47.0281 39.8711 47.4037C43.0584 47.664 46.9483 47.1228 49.2565 46.2118L47.908 46.9098C46.7868 47.4511 43.8298 48.6815 39.6827 48.4123C34.1663 48.0456 31.0628 45.635 29.6695 44.3691C29.0237 43.7775 28.7187 43.0913 28.5244 42.2543C27.2776 41.6066 26.4912 40.9381 25.8454 39.9354C25.4597 39.3468 25.5374 38.6873 25.6361 38.1342C25.666 37.9597 25.7138 37.797 25.7796 37.6402C25.1786 37.2113 24.5747 36.7499 24.3145 36.2885C23.7704 35.3154 24.1052 34.4813 24.482 33.8306C24.1501 33.4668 23.8511 33.0942 23.7136 32.7215C23.5671 32.269 23.5431 31.849 23.582 31.3728C23.6867 30.5535 24.1262 29.8052 24.6943 29.1574C25.9022 27.7821 27.7948 26.7143 31.0449 25.6495C34.2172 24.6113 35.4998 24.4575 37.8948 23.9044C40.6933 23.2597 44.0391 23.0585 46.8436 22.0884C39.0369 20.7308 30.9253 21.9612 24.3145 26.4629L24.763 25.2118H24.757ZM51.3494 20.4498C51.2537 20.8313 50.8381 21.2691 50.5541 21.5678C51.4062 21.7867 52.2613 22.0973 53.0836 22.4078C52.9849 21.6625 52.1029 20.9378 51.3494 20.4498ZM27.2985 35.8804C26.7992 35.6023 26.4553 35.4101 26.0337 35.1202C25.8035 35.6053 26.2311 36.1466 26.6885 36.4068C26.8829 36.2175 27.1041 36.0578 27.3015 35.8804H27.2985ZM53.6158 25.7856C54.1779 26.0577 54.6832 26.2618 55.1765 26.6049C55.5293 25.9394 55.3141 25.5046 54.5726 24.8894C54.2945 25.2236 53.9656 25.5164 53.6158 25.7856ZM51.9474 26.7971C50.8082 27.3177 49.1698 27.859 46.8287 28.4446C44.9121 28.9208 40.2299 29.5804 35.2038 30.6659C33.6042 31.006 29.3017 32.0146 27.1819 33.7981C27.7739 34.2684 28.1357 34.3837 28.7964 34.7446C29.6785 34.1885 30.8595 33.6621 32.6325 33.1977C35.7211 32.3843 38.0174 32.0264 40.795 31.5946C43.5577 31.1687 48.7302 30.098 51.6036 29.0805C52.5364 28.7463 53.4065 28.3204 54.0553 27.8205C53.855 27.5987 52.0102 26.7202 51.9504 26.8001L51.9474 26.7971ZM30.2226 38.6754C30.6472 38.427 31.1585 38.1785 31.7445 37.9478C30.9402 37.6166 30.118 37.2557 29.2778 36.8771C28.9011 37.1078 28.5632 37.3563 28.2941 37.6106C28.934 37.9744 29.5708 38.3353 30.2226 38.6725V38.6754ZM27.5706 38.9357C27.5586 39.4444 27.8696 39.8999 28.5602 40.459C28.6439 40.1809 28.7695 39.9798 28.9728 39.7166C28.4915 39.477 28.022 39.2137 27.5676 38.9387L27.5706 38.9357ZM31.4664 29.5005C37.1174 27.8619 43.0494 27.3561 49.0561 25.7797C46.7091 25.1526 45.4264 24.8864 42.9447 25.1733C39.3389 25.5933 35.3802 26.3682 31.9867 27.3621C30.6562 27.7584 23.6538 29.7164 25.675 32.4612C25.675 32.4997 26.8739 30.8315 31.4664 29.5005ZM52.659 23.7832C51.7411 23.375 50.587 22.9698 49.3671 22.6474C48.8199 23.0792 48.1861 23.4578 47.2771 23.8098C48.802 24.079 49.9471 24.493 51.2298 24.8598C51.46 24.9752 52.5005 24.0109 52.662 23.7832H52.659ZM55.4456 29.1633C55.2722 29.3082 55.0868 29.4502 54.8745 29.607C53.5948 30.583 51.5737 31.3609 48.7721 32.1004C42.9567 33.6502 38.7349 33.878 33.9301 35.0404C33.0003 35.2622 32.0166 35.5757 31.1106 35.9425C32.0166 36.3891 32.9793 36.8061 33.972 37.1788C35.9154 36.6287 36.8603 36.3743 39.6827 35.904C40.7591 35.7206 44.0719 35.1498 46.4699 34.647C50.7933 33.733 57.1289 31.7573 55.4426 29.1663L55.4456 29.1633Z" fill="black"/>
    <path fill-rule="evenodd" clip-rule="evenodd" d="M86.7713 35.8066H91.9289L92.5538 32.065H96.1028L96.7247 35.8066H101.879L97.526 14.1529H91.1276L86.7713 35.8066ZM200.747 35.845H205.902L206.524 32.1035H210.07L210.698 35.845H215.849L211.496 14.1913H205.094L200.744 35.845H200.747ZM186.865 35.8066H192.934C194.247 35.8066 199.737 35.2712 199.751 28.7168C199.757 23.1799 195.494 22.2187 192.74 22.2187H191.843V19.3556H198.561V14.1529H186.865V35.8066ZM156.691 36.0757C162.712 36.0757 164.742 30.5151 164.742 24.9575C164.742 19.3999 162.709 13.8453 156.691 13.8453C150.672 13.8453 148.639 19.3999 148.639 24.9575C148.639 30.5151 150.669 36.0757 156.691 36.0757ZM133.916 35.8066L138.999 35.8125V28.6695H140.704C145.739 28.6695 147.281 24.2004 147.281 21.3639C147.281 18.5274 145.508 14.1559 140.704 14.1618L133.916 14.1559V35.8066ZM94.3238 20.6925L95.2836 27.3001H93.3611L94.3238 20.6925ZM208.297 20.7339L209.256 27.3385H207.334L208.297 20.7339ZM167.179 14.1618H171.494L175.3 19.2609L179.133 14.1618H183.438V35.8154H178.365V22.6002L175.3 26.3921L172.256 22.6002V35.8184H167.179V14.1618ZM76.9404 14.1618L87.3543 14.1559L87.3603 19.5626H82.113V35.8213L76.9404 35.8154V14.1618ZM234.859 14.1559H239.831L239.822 21.9525H240.902L243.754 14.1559H249.157L245.276 24.434L249.701 35.8066H243.856L241 27.1049H239.822L239.831 35.8066H234.859V14.1529V14.1559ZM218.029 14.1559H223.001V21.9554H226.55V14.1559H231.516V35.8066H226.55V27.1492H223.001V35.8066H218.029V14.1529V14.1559ZM191.837 31.4794V26.5547H192.579C193.171 26.5547 194.776 26.5873 194.776 28.8115C194.776 31.0357 193.171 31.4823 192.576 31.4823H191.834L191.837 31.4794ZM156.688 30.8405C154.903 30.8405 153.973 28.776 153.973 24.9605C153.973 21.1421 154.903 19.0805 156.688 19.0805C158.479 19.0805 159.399 21.1421 159.399 24.9605C159.399 28.776 158.476 30.8405 156.688 30.8405ZM138.999 18.9267H140.204C141.361 18.9267 142.079 19.607 142.079 21.4023C142.079 23.7478 140.859 23.9075 140.204 23.9075H138.999V18.9267ZM117.158 14.1559H131.013V35.8066H125.936V19.3704H122.235V35.8154L117.158 35.8095V14.1529V14.1559ZM106.732 22.547C107.551 22.547 109.07 22.0205 109.07 20.4292C109.07 18.5392 107.324 18.415 106.834 18.415C106.254 18.415 105.141 18.5067 104.035 19.0243L103.996 14.3422C105.718 13.9044 106.959 13.7743 108.43 13.7802C112.577 13.7802 114.449 16.664 114.449 19.4621C114.449 22.2601 112.84 23.8661 111.307 24.505V24.715C112.778 25.1735 114.781 26.5902 114.781 29.9118C114.781 33.9935 111.896 36.2502 108.212 36.2502C106.23 36.2443 104.947 35.9633 103.407 35.1233L103.494 30.6275C104.929 31.2368 105.895 31.2842 106.864 31.2842C108.496 31.2842 109.151 30.107 109.151 29.2226C109.151 28.004 108.37 27.1906 106.639 27.1906H104.564V22.5529H106.735L106.732 22.547Z" fill="black"/>
    <path d="M76.9434 41.6303H79.0124C79.4968 41.6303 79.8645 41.6688 80.1097 41.7427C80.3579 41.8196 80.5642 41.9853 80.7316 42.2426C80.899 42.4999 80.9827 42.8223 80.9827 43.2038C80.9827 43.8753 80.6957 44.3041 80.1187 44.4934C80.8063 44.733 81.1472 45.224 81.1472 45.9634C81.1472 46.3538 81.0545 46.6822 80.8691 46.9513C80.6837 47.2205 80.4535 47.3979 80.1785 47.4867C79.9064 47.5754 79.5177 47.6198 79.0124 47.6198H76.9434V41.6244V41.6303ZM78.223 44.0498H78.6536C79.0812 44.0498 79.3532 43.9729 79.4639 43.822C79.5745 43.6682 79.6283 43.4937 79.6283 43.2985C79.6283 43.1181 79.5745 42.9554 79.4639 42.8134C79.3532 42.6714 79.114 42.6005 78.7493 42.6005H78.223V44.0498ZM78.223 46.5934H78.8749C79.4878 46.5934 79.7957 46.3331 79.7957 45.8096C79.7957 45.5198 79.721 45.3157 79.5655 45.1974C79.413 45.0791 79.1828 45.0199 78.8749 45.0199H78.223V46.5934ZM83.7484 41.6303H85.7008L86.556 45.3334L87.5187 41.6303H89.4143V47.6257H88.1675V42.6064L86.9297 47.6257H85.961L84.8278 42.6064V47.6257H83.7454V41.6303H83.7484ZM91.6328 41.6303H92.9753L94.7065 47.6257H93.3431L93.0411 46.3864H91.3368L91.0378 47.6257H89.815L91.6358 41.6303H91.6328ZM92.787 45.3571L92.177 42.911L91.588 45.3571H92.787ZM98.0941 45.4399L99.3229 45.5138C99.2781 46.1616 99.0688 46.691 98.698 47.1022C98.3243 47.5103 97.831 47.7144 97.218 47.7144C96.4735 47.7144 95.9054 47.4393 95.5138 46.8921C95.1221 46.342 94.9277 45.5907 94.9277 44.6295C94.9277 43.6682 95.1221 42.9022 95.5108 42.355C95.8995 41.8078 96.4735 41.5327 97.2389 41.5327C98.5037 41.5327 99.1914 42.3047 99.302 43.8516L98.0851 43.9403C98.0522 43.05 97.7712 42.6034 97.2419 42.6034C96.9639 42.6034 96.7426 42.7483 96.5782 43.0353C96.4137 43.3222 96.33 43.8782 96.33 44.7034C96.33 45.4399 96.4048 45.9486 96.5572 46.2267C96.7067 46.5017 96.934 46.6407 97.236 46.6407C97.7203 46.6407 98.0074 46.2385 98.0911 45.4369L98.0941 45.4399ZM100.148 47.6227V41.6274H101.479V46.4988H102.588V41.6274H103.918V46.4988H105.031V41.6274H106.358V47.6227H100.148ZM106.869 41.6274H110.646V42.7513H109.405V47.6227H108.074V42.7513H106.866V41.6274H106.869ZM112.006 41.6274H113.349L115.08 47.6227H113.716L113.414 46.3834H111.71L111.411 47.6227H110.188L112.009 41.6274H112.006ZM113.16 45.3541L112.55 42.9081L111.961 45.3541H113.16ZM115.582 41.6274H119.027V42.6567H116.916V43.8427H117.382C118.213 43.8427 118.79 44.0054 119.113 44.3337C119.433 44.6591 119.595 45.1382 119.595 45.7593C119.595 46.2355 119.49 46.626 119.275 46.9306C119.059 47.2323 118.808 47.4245 118.521 47.5044C118.234 47.5843 117.837 47.6227 117.331 47.6227H115.588V41.6274H115.582ZM116.913 44.872V46.5905H117.325C117.621 46.5905 117.84 46.5284 117.977 46.4012C118.115 46.274 118.183 46.0581 118.183 45.7505C118.183 45.4843 118.13 45.2713 118.022 45.1116C117.917 44.9519 117.684 44.872 117.325 44.872H116.913ZM121.592 41.6274H122.934L124.665 47.6227H123.302L123 46.3834H121.296L120.997 47.6227H119.774L121.595 41.6274H121.592ZM122.746 45.3541L122.136 42.9081L121.547 45.3541H122.746ZM124.642 41.6274H126.125L126.848 43.1861L127.611 41.6274H128.884L127.455 44.3367L129.07 47.6227H127.608L126.726 45.6617L125.73 47.6227H124.456L126.122 44.5496L124.639 41.6303L124.642 41.6274ZM134.15 45.4399L135.381 45.5138C135.337 46.1616 135.127 46.691 134.756 47.1022C134.383 47.5103 133.889 47.7144 133.276 47.7144C132.532 47.7144 131.964 47.4393 131.572 46.8921C131.181 46.342 130.986 45.5907 130.986 44.6295C130.986 43.6682 131.181 42.9022 131.569 42.355C131.958 41.8078 132.532 41.5327 133.297 41.5327C134.562 41.5327 135.25 42.3047 135.36 43.8516L134.144 43.9403C134.111 43.05 133.83 42.6034 133.3 42.6034C133.022 42.6034 132.801 42.7483 132.637 43.0353C132.472 43.3222 132.388 43.8782 132.388 44.7034C132.388 45.4399 132.463 45.9486 132.616 46.2267C132.765 46.5017 132.992 46.6407 133.294 46.6407C133.779 46.6407 134.066 46.2385 134.15 45.4369V45.4399ZM135.63 41.6274H139.406V42.7513H138.165V47.6227H136.834V42.7513H135.627V41.6274H135.63ZM139.869 41.6274H141.612C142.142 41.6274 142.554 41.6717 142.844 41.7605C143.137 41.8462 143.379 42.0474 143.58 42.355C143.777 42.6626 143.876 43.0471 143.876 43.5026C143.876 43.9581 143.798 44.3041 143.637 44.591C143.478 44.8779 143.257 45.085 142.973 45.2122C142.692 45.3393 142.255 45.4014 141.669 45.4014H141.2V47.6198H139.869V41.6244V41.6274ZM141.2 42.5975V44.3722H141.612C141.977 44.3722 142.21 44.2864 142.318 44.1207C142.423 43.9551 142.476 43.7362 142.476 43.47C142.476 43.2453 142.435 43.0619 142.354 42.9229C142.273 42.7838 142.177 42.6922 142.07 42.6537C141.959 42.6153 141.81 42.5945 141.612 42.5945H141.2V42.5975ZM145.386 41.6274H146.728L148.459 47.6227H147.096L146.794 46.3834H145.09L144.791 47.6227H143.568L145.389 41.6274H145.386ZM146.54 45.3541L145.93 42.9081L145.341 45.3541H146.54ZM148.962 41.6274H150.292V44.0468H151.748V41.6274H153.079V47.6227H151.748V45.1707H150.292V47.6227H148.962V41.6274ZM154.227 47.6227V41.6274H155.557V43.8398H156.027C156.855 43.8398 157.432 44.0024 157.752 44.3307C158.072 44.6561 158.233 45.1352 158.233 45.7564C158.233 46.2326 158.129 46.623 157.913 46.9276C157.698 47.2293 157.447 47.4216 157.16 47.5014C156.873 47.5813 156.475 47.6198 155.97 47.6198H154.227V47.6227ZM155.557 46.6526H155.97C156.164 46.6526 156.32 46.6319 156.427 46.5905C156.535 46.5491 156.631 46.4574 156.711 46.3184C156.789 46.1793 156.831 45.9989 156.831 45.7771C156.831 45.5079 156.777 45.2891 156.673 45.1205C156.568 44.9548 156.332 44.8691 155.967 44.8691H155.554V46.6467L155.557 46.6526ZM158.873 41.6274H160.204V47.6227H158.873V41.6274ZM161.319 46.2947H162.56V47.5044L161.809 49.0395H161.319L161.902 47.6227H161.319V46.2947ZM165.367 41.6274H167.436C167.921 41.6274 168.288 41.6658 168.534 41.7398C168.782 41.8167 168.988 41.9823 169.156 42.2396C169.323 42.4969 169.407 42.8193 169.407 43.2009C169.407 43.8723 169.12 44.3012 168.543 44.4905C169.23 44.73 169.571 45.221 169.571 45.9605C169.571 46.3509 169.478 46.6792 169.293 46.9483C169.108 47.2175 168.877 47.395 168.602 47.4837C168.33 47.5724 167.942 47.6168 167.436 47.6168H165.367V41.6214V41.6274ZM166.647 44.0468H167.078C167.505 44.0468 167.777 43.9699 167.888 43.8191C167.998 43.6652 168.052 43.4907 168.052 43.2955C168.052 43.1151 167.998 42.9524 167.888 42.8105C167.774 42.6685 167.538 42.5975 167.173 42.5975H166.647V44.0468ZM166.647 46.5905H167.299C167.912 46.5905 168.22 46.3302 168.22 45.8067C168.22 45.5168 168.145 45.3127 167.989 45.1944C167.837 45.0761 167.607 45.0169 167.299 45.0169H166.647V46.5905ZM173.506 47.0075V47.6227H172.175V41.6274H173.506V44.9903L173.706 44.6265L175.061 42.2899V41.6274H176.391V47.6227H175.061V44.5171L175.067 44.2775L174.854 44.6738L173.509 47.0075H173.506ZM177.536 41.6274H178.867V44.0468H180.323V41.6274H181.653V47.6227H180.323V45.1707H178.867V47.6227H177.536V41.6274ZM182.123 41.6274H185.899V42.7513H184.658V47.6227H183.328V42.7513H182.12V41.6274H182.123ZM186.363 41.6274H190.049V42.6567H187.696V44.0468H189.526V45.0791H187.696V46.5491H190.049V47.6198H186.363V41.6244V41.6274ZM190.701 41.6274H192.444C192.973 41.6274 193.386 41.6717 193.676 41.7605C193.969 41.8462 194.211 42.0474 194.411 42.355C194.609 42.6626 194.707 43.0471 194.707 43.5026C194.707 43.9581 194.63 44.3041 194.468 44.591C194.31 44.8779 194.089 45.085 193.804 45.2122C193.523 45.3393 193.087 45.4014 192.501 45.4014H192.031V47.6198H190.701V41.6244V41.6274ZM192.031 42.5975V44.3722H192.444C192.809 44.3722 193.042 44.2864 193.15 44.1207C193.254 43.9551 193.308 43.7362 193.308 43.47C193.308 43.2453 193.266 43.0619 193.186 42.9229C193.105 42.7838 193.009 42.6922 192.901 42.6537C192.794 42.6153 192.641 42.5945 192.444 42.5945H192.031V42.5975ZM195.347 41.6274H199.034V42.6567H196.681V44.0468H198.511V45.0791H196.681V46.5491H199.034V47.6198H195.347V41.6244V41.6274ZM202.631 45.4399L203.863 45.5138C203.818 46.1616 203.608 46.691 203.238 47.1022C202.864 47.5103 202.371 47.7144 201.758 47.7144C201.013 47.7144 200.445 47.4393 200.053 46.8921C199.662 46.342 199.467 45.5907 199.467 44.6295C199.467 43.6682 199.662 42.9022 200.05 42.355C200.439 41.8078 201.013 41.5327 201.779 41.5327C203.043 41.5327 203.731 42.3047 203.842 43.8516L202.625 43.9403C202.592 43.05 202.311 42.6034 201.782 42.6034C201.504 42.6034 201.282 42.7483 201.118 43.0353C200.953 43.3222 200.87 43.8782 200.87 44.7034C200.87 45.4399 200.944 45.9486 201.097 46.2267C201.246 46.5017 201.474 46.6407 201.776 46.6407C202.26 46.6407 202.547 46.2385 202.631 45.4369V45.4399ZM205.782 41.6274H207.125L208.856 47.6227H207.492L207.19 46.3834H205.486L205.187 47.6227H203.961L205.782 41.6274ZM206.936 45.3541L206.326 42.9081L205.737 45.3541H206.936ZM208.832 41.6274H210.315L211.038 43.1861L211.801 41.6274H213.074L211.645 44.3367L213.26 47.6227H211.798L210.916 45.6617L209.92 47.6227H208.646L210.312 44.5496L208.829 41.6303L208.832 41.6274ZM215.392 41.6274H216.722V44.1267L218.196 41.6274H219.542L218.023 43.8309L219.67 47.6198H218.295L217.23 44.8572L216.725 45.5819V47.6198H215.395V41.6244L215.392 41.6274ZM221.261 41.6274H222.6L224.332 47.6227H222.968L222.666 46.3834H220.962L220.663 47.6227H219.44L221.261 41.6274ZM222.415 45.3541L221.805 42.9081L221.216 45.3541H222.415ZM229.229 44.2095L231.143 47.6227H229.734L228.302 45.011L228.245 45.0495V47.6227H226.915V45.0495L226.87 45.011L225.42 47.6227H224.137L225.931 44.5053L224.266 41.6303H225.659L226.822 43.822L226.915 43.8457V41.6333H228.245V43.8457L228.293 43.822L229.501 41.6303H230.793L229.229 44.2124V44.2095ZM231.038 46.5283L232.357 41.6274H234.067L235.26 46.5283H235.636V48.8383H234.653L234.533 47.6227H231.759L231.645 48.8383H230.658V46.5283H231.041H231.038ZM232.249 46.5283H233.911L233.182 42.8933H233.014L232.249 46.5283ZM240.253 44.6236C240.253 46.6851 239.52 47.7144 238.055 47.7144C237.326 47.7144 236.779 47.4512 236.408 46.9247C236.037 46.3982 235.852 45.6322 235.852 44.6206C235.852 42.562 236.584 41.5327 238.049 41.5327C238.764 41.5327 239.311 41.79 239.688 42.3047C240.065 42.8193 240.253 43.5913 240.253 44.6206V44.6236ZM238.851 44.6236C238.851 43.8161 238.788 43.2778 238.659 43.0086C238.531 42.7424 238.327 42.6064 238.052 42.6064C237.777 42.6064 237.574 42.7424 237.448 43.0116C237.32 43.2807 237.257 43.8191 237.257 44.6236C237.257 45.4281 237.32 45.9486 237.445 46.2267C237.571 46.5047 237.771 46.6437 238.052 46.6437C238.333 46.6437 238.531 46.5106 238.656 46.2444C238.785 45.9782 238.851 45.4369 238.851 44.6236ZM244.866 41.6274V42.6567H242.513V47.6227H241.183V41.6274H244.869H244.866ZM249.656 44.6236C249.656 46.6851 248.924 47.7144 247.459 47.7144C246.729 47.7144 246.182 47.4512 245.811 46.9247C245.44 46.3982 245.255 45.6322 245.255 44.6206C245.255 42.562 245.988 41.5327 247.453 41.5327C248.167 41.5327 248.714 41.79 249.091 42.3047C249.468 42.8193 249.653 43.5913 249.653 44.6206L249.656 44.6236ZM248.254 44.6236C248.254 43.8161 248.191 43.2778 248.063 43.0086C247.934 42.7424 247.731 42.6064 247.456 42.6064C247.181 42.6064 246.977 42.7424 246.852 43.0116C246.723 43.2807 246.66 43.8191 246.66 44.6236C246.66 45.4281 246.723 45.9486 246.849 46.2267C246.974 46.5047 247.175 46.6437 247.456 46.6437C247.737 46.6437 247.934 46.5106 248.06 46.2444C248.188 45.9782 248.254 45.4369 248.254 44.6236Z" fill="black"/>
</svg>
