<svg width="186" height="42" viewBox="0 0 186 42" fill="none" xmlns="http://www.w3.org/2000/svg">
    <path d="M42.2848 4.28308L6.8833 36.9686L7.35269 37.7178L42.2848 13.9015V4.28308Z" fill="#111111"/>
    <path d="M28.0759 0L3.93408 35.2594L4.91746 36.2427L38.2047 0H28.0759Z" fill="#111111"/>
    <path d="M22.0079 0H13.9246L0 13.9246V36.7192L22.0079 0Z" fill="#111111"/>
    <path d="M5.7334 42H28.0757L42.0003 28.0754V20.2576L5.7334 42Z" fill="#111111"/>
    <path d="M62.1288 9.01743H57.4971L57.5364 5.40845H70.8906L70.93 9.01743H66.2983V33.1494H62.0993L62.1386 9.01743H62.1288Z" fill="#111111"/>
    <path d="M73.1133 20.228H79.338V23.8764H73.1133V20.228Z" fill="#111111"/>
    <path d="M84.6092 29.6978L84.5698 8.89943L88.0608 5.40845H95.7115L95.7508 9.01743H90.1652L88.7393 10.3646L88.8573 28.1932L90.1259 29.5405H95.7901L95.7508 33.1494H88.0608L84.6092 29.6978Z" fill="#111111"/>
    <path d="M103.234 9.01743H98.6021L98.6414 5.40845H111.996L112.035 9.01743H107.403V33.1494H103.204L103.244 9.01743H103.234Z" fill="#111111"/>
    <path d="M117.12 29.3438H120.05L120.719 26.846L115.251 6.95234L115.212 5.40845H119.175L122.459 19.7166H123.049L126.019 5.40845H129.786L129.825 6.95234L123.364 33.1396H117.021L117.1 29.334L117.12 29.3438Z" fill="#111111"/>
    <path d="M130.188 29.5405H131.928L133.079 27.1214L134.032 5.40845H145.764L145.803 29.5405H148.341L148.38 36.5913H144.338V33.1396H134.239V36.5913H130.197V29.5405H130.188ZM141.486 29.5405L141.565 9.01743H137.956L137.16 27.7999L136.324 29.5405H141.477H141.486Z" fill="#111111"/>
    <path d="M151.743 5.40845H155.706L155.785 28.0359H156.414L160.299 5.40845H167.035V33.1396H163.111L163.19 10.5122H162.56L158.519 33.1396H151.743V5.40845Z" fill="#111111"/>
    <path d="M171.815 31.6351L174.745 22.3619L172.169 19.7461V8.85034L175.532 5.39868H185.12V33.1299H180.921V23.2666H178.58L175.65 33.1299H171.805V31.6253L171.815 31.6351ZM180.921 19.7068V9.04701H177.636L176.407 10.3156V18.3596L177.754 19.7068H180.921Z" fill="#111111"/>
</svg>