<svg width="185" height="43" viewBox="0 0 185 43" fill="none" xmlns="http://www.w3.org/2000/svg">
    <path d="M81 22H75V25H81V22Z" fill="white"/>
    <path d="M90 32V31L89 30V12L90 11V10H96V7H88L85 10V32L88 35H96V32H90Z" fill="white"/>
    <path d="M72 10V7H59V10H63H64V11V35H67V11V10H68H72Z" fill="white"/>
    <path d="M112 10V7H99V10H103H104V11V35H107V11V10H108H112Z" fill="white"/>
    <path d="M130 7H126L123 21V22H122V21L119 7H115V8L121 29L120 31H117V35H123L130 8V7Z" fill="white"/>
    <path d="M146 31H145V7H134L133 29L132 31H130V38H134V35H144V38H148V31H146ZM141 11V31H136L137 29L138 11V10H141V11Z" fill="white"/>
    <path d="M157 30H156V7H152V35H159L163 12V35H167V7H160L157 30Z" fill="white"/>
    <path d="M172 10V21L175 24L172 34V35H176L179 25H181V35H185V7H176L172 10ZM176 20V12L178 11H181V22H178V21L176 20Z" fill="white"/>
    <path d="M28 42L42 28V21L6 42H28Z" fill="url(#paint0_linear_389_1082)"/>
    <path d="M14 0L0 14V36L22 0H14Z" fill="url(#paint1_linear_389_1082)"/>
    <path d="M28 0L2 38L38 0H28Z" fill="url(#paint2_linear_389_1082)"/>
    <path d="M4 40L42 14V4L4 40Z" fill="url(#paint3_linear_389_1082)"/>
    <defs>
        <linearGradient id="paint0_linear_389_1082" x1="15.4636" y1="43.5784" x2="44.4781" y2="13.2381" gradientUnits="userSpaceOnUse">
            <stop stop-color="#6FEDDC"/>
            <stop offset="1" stop-color="#000CF4"/>
        </linearGradient>
        <linearGradient id="paint1_linear_389_1082" x1="-1.5823" y1="26.6182" x2="27.9682" y2="-3.93" gradientUnits="userSpaceOnUse">
            <stop stop-color="#6FEDDC"/>
            <stop offset="1" stop-color="#000CF4"/>
        </linearGradient>
        <linearGradient id="paint2_linear_389_1082" x1="3.15224" y1="31.2274" x2="32.6049" y2="1.04341" gradientUnits="userSpaceOnUse">
            <stop stop-color="#6FEDDC"/>
            <stop offset="1" stop-color="#000CF4"/>
        </linearGradient>
        <linearGradient id="paint3_linear_389_1082" x1="11.0726" y1="38.9634" x2="40.886" y2="8.86206" gradientUnits="userSpaceOnUse">
            <stop stop-color="#6FEDDC"/>
            <stop offset="1" stop-color="#000CF4"/>
        </linearGradient>
    </defs>
</svg>
